<?xml version="1.0" standalone="no"?>
<!DOCTYPE svg PUBLIC "-//W3C//DTD SVG 20010904//EN"
 "http://www.w3.org/TR/2001/REC-SVG-20010904/DTD/svg10.dtd">
<svg version="1.0" xmlns="http://www.w3.org/2000/svg"
 width="477.000000pt" height="126.000000pt" viewBox="0 0 477.000000 126.000000"
 preserveAspectRatio="xMidYMid meet">

<g transform="translate(0.000000,126.000000) scale(0.100000,-0.100000)"
fill="#000000" stroke="none">
<path d="M292 1128 c-6 -6 -12 -17 -12 -23 0 -15 73 -150 181 -336 75 -128 83
-139 110 -139 22 0 30 6 35 24 4 18 -13 57 -74 163 -44 76 -102 179 -129 228
-39 70 -56 91 -74 93 -13 2 -30 -3 -37 -10z"/>
<path d="M1032 1118 c-19 -19 -15 -36 28 -113 46 -84 61 -99 89 -90 36 11 35
41 -5 113 -56 102 -80 122 -112 90z"/>
<path d="M135 1084 c-9 -10 -14 -25 -12 -35 3 -10 121 -219 262 -464 l258
-446 31 3 c23 2 32 9 34 25 2 14 -86 176 -249 460 -139 241 -259 446 -267 456
-19 21 -36 22 -57 1z"/>
<path d="M906 1004 c-9 -8 -16 -20 -16 -26 0 -19 113 -207 127 -213 22 -8 53
13 53 37 0 21 -78 167 -108 201 -19 21 -36 22 -56 1z"/>
<path d="M837 804 c-16 -16 -5 -56 34 -123 42 -73 68 -88 97 -59 19 19 14 39
-31 113 -32 53 -48 71 -67 73 -14 2 -29 0 -33 -4z"/>
<path d="M2292 780 c-89 -21 -129 -135 -75 -217 46 -70 179 -71 227 -1 9 12
16 42 16 65 l0 43 -70 0 -70 0 0 -30 c0 -28 3 -30 36 -30 31 0 35 -2 24 -15
-17 -21 -73 -19 -93 3 -17 19 -22 57 -11 87 11 28 52 37 87 20 44 -22 87 -20
87 4 0 23 -54 71 -80 71 -10 0 -24 2 -32 4 -7 2 -28 0 -46 -4z"/>
<path d="M2940 772 c-76 -37 -64 -108 25 -147 32 -14 55 -31 55 -40 0 -17 -35
-21 -45 -5 -8 14 -85 13 -85 -1 0 -6 13 -24 29 -40 25 -24 37 -29 81 -29 41 0
56 5 75 25 51 50 23 123 -55 140 -37 8 -58 31 -42 47 9 9 16 7 30 -5 20 -19
92 -23 92 -6 0 24 -24 52 -55 65 -45 18 -63 18 -105 -4z"/>
<path d="M3530 772 c-76 -37 -64 -108 25 -147 32 -14 55 -31 55 -40 0 -17 -35
-21 -45 -5 -8 14 -85 13 -85 -1 0 -6 13 -24 29 -40 25 -24 37 -29 81 -29 41 0
56 5 75 25 51 50 23 123 -55 140 -37 8 -58 31 -42 47 9 9 16 7 30 -5 20 -19
92 -23 92 -6 0 24 -24 52 -55 65 -45 18 -63 18 -105 -4z"/>
<path d="M1316 758 c3 -13 24 -74 46 -135 l40 -113 48 0 47 0 43 123 c24 67
45 128 48 135 3 8 -8 12 -37 12 l-41 0 -27 -90 c-15 -49 -30 -90 -33 -90 -3 0
-18 41 -33 90 l-27 90 -41 0 c-37 0 -40 -2 -33 -22z"/>
<path d="M1660 645 l0 -135 85 0 85 0 0 30 c0 29 -1 30 -50 30 -47 0 -50 2
-50 25 0 23 4 25 45 25 43 0 45 1 45 30 0 29 -2 30 -45 30 -38 0 -45 3 -45 20
0 17 7 20 50 20 49 0 50 1 50 30 l0 30 -85 0 -85 0 0 -135z"/>
<path d="M1910 645 l0 -135 34 0 35 0 3 53 3 52 30 -52 c29 -51 32 -53 73 -53
32 0 41 3 36 13 -4 6 -18 29 -31 49 l-23 37 30 30 c32 31 37 55 19 94 -16 35
-50 47 -134 47 l-75 0 0 -135z m138 51 c5 -22 -13 -36 -45 -36 -19 0 -23 5
-23 31 0 28 2 30 32 27 23 -2 34 -9 36 -22z"/>
<path d="M2530 645 l0 -135 90 0 90 0 0 30 c0 29 -1 30 -50 30 -47 0 -50 2
-50 25 0 23 4 25 45 25 43 0 45 1 45 30 0 29 -2 30 -45 30 -38 0 -45 3 -45 20
0 17 7 20 50 20 49 0 50 1 50 30 l0 30 -90 0 -90 0 0 -135z"/>
<path d="M3209 686 c37 -70 51 -106 51 -135 0 -40 1 -41 35 -41 34 0 35 1 35
40 0 28 14 68 45 130 25 49 45 92 45 95 0 3 -18 5 -40 5 -39 0 -41 -2 -63 -51
l-22 -52 -24 52 c-24 50 -25 51 -69 51 l-44 0 51 -94z"/>
<path d="M3750 750 c0 -28 3 -30 35 -30 l35 0 0 -105 0 -105 40 0 40 0 0 105
0 105 35 0 c32 0 35 2 35 30 l0 30 -110 0 -110 0 0 -30z"/>
<path d="M4040 645 l0 -135 90 0 90 0 0 30 c0 29 -1 30 -50 30 -47 0 -50 2
-50 25 0 23 4 25 40 25 38 0 40 2 40 30 0 28 -2 30 -40 30 -33 0 -40 3 -40 19
0 17 8 20 48 23 43 3 47 5 50 31 l3 27 -90 0 -91 0 0 -135z"/>
<path d="M4290 645 l0 -135 40 0 40 0 1 68 1 67 22 -65 c22 -63 24 -65 57 -65
32 0 35 3 56 60 l22 60 0 -62 1 -63 40 0 40 0 0 136 0 135 -47 -3 -48 -3 -31
-85 c-32 -84 -32 -85 -44 -55 -6 17 -21 56 -33 88 l-22 57 -47 0 -48 0 0 -135z"/>
<path d="M747 643 c-15 -15 -4 -52 36 -118 43 -70 66 -87 92 -65 23 19 18 43
-26 119 -35 61 -45 71 -68 71 -15 0 -31 -3 -34 -7z"/>
<path d="M618 593 c-39 -9 -31 -42 39 -165 75 -131 92 -150 121 -132 31 20 24
50 -45 168 -68 119 -84 136 -115 129z"/>
</g>
</svg>
